<svg width="24" height="24" viewBox="0 0 24 24" fill="none" xmlns="http://www.w3.org/2000/svg">
<g id="mdi-light:email">
<g id="Vector">
<mask id="path-1-inside-1_1469_151" fill="white">
<path d="M6.68421 6H18.3158C19.0277 6 19.7104 6.27393 20.2138 6.76152C20.7172 7.24912 21 7.91044 21 8.6V16.4C21 17.0896 20.7172 17.7509 20.2138 18.2385C19.7104 18.7261 19.0277 19 18.3158 19H6.68421C5.97231 19 5.28957 18.7261 4.78619 18.2385C4.2828 17.7509 4 17.0896 4 16.4V8.6C4 7.91044 4.2828 7.24912 4.78619 6.76152C5.28957 6.27393 5.97231 6 6.68421 6ZM6.68421 6.86667C6.23684 6.86667 5.84316 7.014 5.53895 7.274L12.5 11.6333L19.4611 7.274C19.1568 7.014 18.7632 6.86667 18.3158 6.86667H6.68421ZM12.5 12.682L5.01105 7.976C4.93947 8.16667 4.89474 8.38333 4.89474 8.6V16.4C4.89474 16.8597 5.08327 17.3006 5.41886 17.6257C5.75445 17.9507 6.20961 18.1333 6.68421 18.1333H18.3158C18.7904 18.1333 19.2455 17.9507 19.5811 17.6257C19.9167 17.3006 20.1053 16.8597 20.1053 16.4V8.6C20.1053 8.38333 20.0605 8.16667 19.9889 7.976L12.5 12.682Z"/>
</mask>
<path d="M6.68421 6H18.3158C19.0277 6 19.7104 6.27393 20.2138 6.76152C20.7172 7.24912 21 7.91044 21 8.6V16.4C21 17.0896 20.7172 17.7509 20.2138 18.2385C19.7104 18.7261 19.0277 19 18.3158 19H6.68421C5.97231 19 5.28957 18.7261 4.78619 18.2385C4.2828 17.7509 4 17.0896 4 16.4V8.6C4 7.91044 4.2828 7.24912 4.78619 6.76152C5.28957 6.27393 5.97231 6 6.68421 6ZM6.68421 6.86667C6.23684 6.86667 5.84316 7.014 5.53895 7.274L12.5 11.6333L19.4611 7.274C19.1568 7.014 18.7632 6.86667 18.3158 6.86667H6.68421ZM12.5 12.682L5.01105 7.976C4.93947 8.16667 4.89474 8.38333 4.89474 8.6V16.4C4.89474 16.8597 5.08327 17.3006 5.41886 17.6257C5.75445 17.9507 6.20961 18.1333 6.68421 18.1333H18.3158C18.7904 18.1333 19.2455 17.9507 19.5811 17.6257C19.9167 17.3006 20.1053 16.8597 20.1053 16.4V8.6C20.1053 8.38333 20.0605 8.16667 19.9889 7.976L12.5 12.682Z" fill="#474770"/>
<path d="M6.68421 6V5V6ZM21 8.6H22H21ZM21 16.4H22H21ZM18.3158 19V20V19ZM6.68421 19V20V19ZM4 16.4L3 16.4L4 16.4ZM4 8.6H3H4ZM5.53895 7.274L4.88924 6.51382L3.85393 7.39867L5.00819 8.12152L5.53895 7.274ZM12.5 11.6333L11.9692 12.4809L12.5 12.8132L13.0308 12.4809L12.5 11.6333ZM19.4611 7.274L19.9918 8.12152L21.1461 7.39867L20.1108 6.51382L19.4611 7.274ZM12.5 12.682L11.9679 13.5287L12.5 13.863L13.0321 13.5287L12.5 12.682ZM5.01105 7.976L5.54312 7.1293L4.50554 6.47729L4.07485 7.62454L5.01105 7.976ZM4.89474 16.4L3.89474 16.4L4.89474 16.4ZM19.9889 7.976L20.9251 7.62454L20.4945 6.47729L19.4569 7.1293L19.9889 7.976ZM6.68421 7H18.3158V5H6.68421V7ZM18.3158 7C18.7726 7 19.2045 7.17606 19.5181 7.47981L20.9096 6.04324C20.2164 5.37179 19.2828 5 18.3158 5V7ZM19.5181 7.47981C19.8306 7.7825 20 8.18612 20 8.6L22 8.6C22 7.63475 21.6038 6.71573 20.9096 6.04324L19.5181 7.47981ZM20 8.6V16.4H22V8.6H20ZM20 16.4C20 16.8139 19.8306 17.2175 19.5181 17.5202L20.9096 18.9568C21.6038 18.2843 22 17.3653 22 16.4L20 16.4ZM19.5181 17.5202C19.2045 17.8239 18.7726 18 18.3158 18V20C19.2828 20 20.2164 19.6282 20.9096 18.9568L19.5181 17.5202ZM18.3158 18H6.68421V20H18.3158V18ZM6.68421 18C6.22743 18 5.79552 17.8239 5.48194 17.5202L4.09044 18.9568C4.78363 19.6282 5.7172 20 6.68421 20V18ZM5.48194 17.5202C5.16944 17.2175 5 16.8139 5 16.4L3 16.4C3 17.3653 3.39616 18.2843 4.09044 18.9568L5.48194 17.5202ZM5 16.4V8.6H3V16.4H5ZM5 8.6C5 8.18613 5.16944 7.7825 5.48194 7.47981L4.09044 6.04324C3.39616 6.71573 3 7.63475 3 8.6L5 8.6ZM5.48194 7.47981C5.79552 7.17606 6.22743 7 6.68421 7V5C5.7172 5 4.78363 5.37179 4.09044 6.04324L5.48194 7.47981ZM6.68421 5.86667C6.00964 5.86667 5.38275 6.09203 4.88924 6.51382L6.18865 8.03418C6.30357 7.93597 6.46404 7.86667 6.68421 7.86667V5.86667ZM5.00819 8.12152L11.9692 12.4809L13.0308 10.7858L6.06971 6.42648L5.00819 8.12152ZM13.0308 12.4809L19.9918 8.12152L18.9303 6.42648L11.9692 10.7858L13.0308 12.4809ZM20.1108 6.51382C19.6173 6.09203 18.9904 5.86667 18.3158 5.86667V7.86667C18.536 7.86667 18.6964 7.93597 18.8113 8.03418L20.1108 6.51382ZM18.3158 5.86667H6.68421V7.86667H18.3158V5.86667ZM13.0321 11.8353L5.54312 7.1293L4.47899 8.82271L11.9679 13.5287L13.0321 11.8353ZM4.07485 7.62454C3.96584 7.91492 3.89474 8.25048 3.89474 8.6H5.89474C5.89474 8.51618 5.91311 8.41841 5.94725 8.32746L4.07485 7.62454ZM3.89474 8.6V16.4H5.89474V8.6H3.89474ZM3.89474 16.4C3.89474 17.1354 4.19663 17.834 4.72311 18.3439L6.11461 16.9074C5.96991 16.7672 5.89474 16.584 5.89474 16.4L3.89474 16.4ZM4.72311 18.3439C5.24851 18.8528 5.9545 19.1333 6.68421 19.1333V17.1333C6.46473 17.1333 6.2604 17.0486 6.11461 16.9074L4.72311 18.3439ZM6.68421 19.1333H18.3158V17.1333H6.68421V19.1333ZM18.3158 19.1333C19.0455 19.1333 19.7515 18.8528 20.2769 18.3439L18.8854 16.9074C18.7396 17.0486 18.5353 17.1333 18.3158 17.1333V19.1333ZM20.2769 18.3439C20.8034 17.834 21.1053 17.1354 21.1053 16.4H19.1053C19.1053 16.584 19.0301 16.7672 18.8854 16.9074L20.2769 18.3439ZM21.1053 16.4V8.6H19.1053V16.4H21.1053ZM21.1053 8.6C21.1053 8.25049 21.0342 7.91492 20.9251 7.62454L19.0527 8.32746C19.0869 8.41841 19.1053 8.51618 19.1053 8.6H21.1053ZM19.4569 7.1293L11.9679 11.8353L13.0321 13.5287L20.521 8.82271L19.4569 7.1293Z" fill="#AFAFAF" mask="url(#path-1-inside-1_1469_151)"/>
</g>
</g>
</svg>
