<svg width="24" height="24" viewBox="0 0 24 24" fill="none" xmlns="http://www.w3.org/2000/svg">
<path d="M5 17.25C5 16.3217 5.36875 15.4315 6.02513 14.7751C6.6815 14.1187 7.57174 13.75 8.5 13.75H15.5C16.4283 13.75 17.3185 14.1187 17.9749 14.7751C18.6313 15.4315 19 16.3217 19 17.25C19 17.7141 18.8156 18.1592 18.4874 18.4874C18.1592 18.8156 17.7141 19 17.25 19H6.75C6.28587 19 5.84075 18.8156 5.51256 18.4874C5.18437 18.1592 5 17.7141 5 17.25Z" stroke="white" stroke-linejoin="round"/>
<path d="M12 10.25C13.4497 10.25 14.625 9.07475 14.625 7.625C14.625 6.17525 13.4497 5 12 5C10.5503 5 9.375 6.17525 9.375 7.625C9.375 9.07475 10.5503 10.25 12 10.25Z" stroke="white"/>
</svg>
