<svg width="24" height="24" viewBox="0 0 24 24" fill="none" xmlns="http://www.w3.org/2000/svg">
<g id="mdi-light:phone">
<g id="Vector">
<mask id="path-1-inside-1_1469_162" fill="white">
<path d="M17.8158 20C18.1299 20 18.4311 19.8752 18.6532 19.6532C18.8752 19.4311 19 19.1299 19 18.8158V16.0526C19 15.7386 18.8752 15.4374 18.6532 15.2153C18.4311 14.9932 18.1299 14.8684 17.8158 14.8684C16.8921 14.8684 15.9842 14.7263 15.1158 14.4342C14.9082 14.3687 14.6866 14.3613 14.475 14.4127C14.2635 14.4642 14.0701 14.5727 13.9158 14.7263L12.7789 15.8632C10.815 14.7913 9.2008 13.1771 8.12895 11.2132L9.25789 10.0842C9.58158 9.77632 9.7 9.31842 9.55789 8.87632C9.27368 8.01579 9.13158 7.10789 9.13158 6.18421C9.13158 5.87014 9.00681 5.56893 8.78473 5.34685C8.56265 5.12476 8.26144 5 7.94737 5H5.18421C4.87014 5 4.56893 5.12476 4.34685 5.34685C4.12476 5.56893 4 5.87014 4 6.18421C4 13.8026 10.1974 20 17.8158 20ZM5.18421 5.78947H7.94737C8.05206 5.78947 8.15246 5.83106 8.22649 5.90509C8.30052 5.97912 8.34211 6.07952 8.34211 6.18421C8.34211 7.19474 8.5 8.18158 8.8079 9.12105C8.84737 9.23158 8.83947 9.38947 8.71316 9.51579L7.15789 11.0632C8.46053 13.6132 10.3711 15.5237 12.9289 16.8421L14.4684 15.2868C14.5789 15.1763 14.7289 15.1447 14.8711 15.1842C15.8184 15.5 16.8053 15.6579 17.8158 15.6579C17.9205 15.6579 18.0209 15.6995 18.0949 15.7735C18.1689 15.8475 18.2105 15.9479 18.2105 16.0526V18.8158C18.2105 18.9205 18.1689 19.0209 18.0949 19.0949C18.0209 19.1689 17.9205 19.2105 17.8158 19.2105C10.6316 19.2105 4.78947 13.3684 4.78947 6.18421C4.78947 6.07952 4.83106 5.97912 4.90509 5.90509C4.97912 5.83106 5.07952 5.78947 5.18421 5.78947Z"/>
</mask>
<path d="M17.8158 20C18.1299 20 18.4311 19.8752 18.6532 19.6532C18.8752 19.4311 19 19.1299 19 18.8158V16.0526C19 15.7386 18.8752 15.4374 18.6532 15.2153C18.4311 14.9932 18.1299 14.8684 17.8158 14.8684C16.8921 14.8684 15.9842 14.7263 15.1158 14.4342C14.9082 14.3687 14.6866 14.3613 14.475 14.4127C14.2635 14.4642 14.0701 14.5727 13.9158 14.7263L12.7789 15.8632C10.815 14.7913 9.2008 13.1771 8.12895 11.2132L9.25789 10.0842C9.58158 9.77632 9.7 9.31842 9.55789 8.87632C9.27368 8.01579 9.13158 7.10789 9.13158 6.18421C9.13158 5.87014 9.00681 5.56893 8.78473 5.34685C8.56265 5.12476 8.26144 5 7.94737 5H5.18421C4.87014 5 4.56893 5.12476 4.34685 5.34685C4.12476 5.56893 4 5.87014 4 6.18421C4 13.8026 10.1974 20 17.8158 20ZM5.18421 5.78947H7.94737C8.05206 5.78947 8.15246 5.83106 8.22649 5.90509C8.30052 5.97912 8.34211 6.07952 8.34211 6.18421C8.34211 7.19474 8.5 8.18158 8.8079 9.12105C8.84737 9.23158 8.83947 9.38947 8.71316 9.51579L7.15789 11.0632C8.46053 13.6132 10.3711 15.5237 12.9289 16.8421L14.4684 15.2868C14.5789 15.1763 14.7289 15.1447 14.8711 15.1842C15.8184 15.5 16.8053 15.6579 17.8158 15.6579C17.9205 15.6579 18.0209 15.6995 18.0949 15.7735C18.1689 15.8475 18.2105 15.9479 18.2105 16.0526V18.8158C18.2105 18.9205 18.1689 19.0209 18.0949 19.0949C18.0209 19.1689 17.9205 19.2105 17.8158 19.2105C10.6316 19.2105 4.78947 13.3684 4.78947 6.18421C4.78947 6.07952 4.83106 5.97912 4.90509 5.90509C4.97912 5.83106 5.07952 5.78947 5.18421 5.78947Z" fill="#474770"/>
<path d="M17.8158 14.8684V13.8684V14.8684ZM15.1158 14.4342L15.4346 13.4864L15.4257 13.4834L15.4168 13.4806L15.1158 14.4342ZM13.9158 14.7263L13.2102 14.0177L13.2087 14.0192L13.9158 14.7263ZM12.7789 15.8632L12.2999 16.7409L12.9568 17.0995L13.4861 16.5703L12.7789 15.8632ZM8.12895 11.2132L7.42184 10.5061L6.89263 11.0353L7.25116 11.6922L8.12895 11.2132ZM9.25789 10.0842L8.56868 9.35965L8.55963 9.36827L8.55079 9.3771L9.25789 10.0842ZM9.55789 8.87632L10.51 8.5703L10.5074 8.5627L9.55789 8.87632ZM9.13158 6.18421H10.1316H9.13158ZM7.94737 5V4V5ZM4 6.18421H3H4ZM5.18421 5.78947V6.78947V5.78947ZM7.94737 5.78947V6.78947V5.78947ZM8.8079 9.12105L7.85763 9.43249L7.86173 9.44499L7.86615 9.45739L8.8079 9.12105ZM8.71316 9.51579L9.41847 10.2247L9.42026 10.2229L8.71316 9.51579ZM7.15789 11.0632L6.45259 10.3543L5.9356 10.8686L6.26736 11.5181L7.15789 11.0632ZM12.9289 16.8421L12.4708 17.731L13.1233 18.0673L13.6397 17.5456L12.9289 16.8421ZM14.4684 15.2868L13.7613 14.5797L13.7577 14.5834L14.4684 15.2868ZM14.8711 15.1842L15.1873 14.2355L15.1632 14.2275L15.1387 14.2207L14.8711 15.1842ZM17.8158 21C18.3951 21 18.9506 20.7699 19.3603 20.3603L17.946 18.946C17.9115 18.9806 17.8646 19 17.8158 19V21ZM19.3603 20.3603C19.7699 19.9506 20 19.3951 20 18.8158H18C18 18.8646 17.9806 18.9115 17.946 18.946L19.3603 20.3603ZM20 18.8158V16.0526H18V18.8158H20ZM20 16.0526C20 15.4733 19.7699 14.9178 19.3603 14.5082L17.946 15.9224C17.9806 15.9569 18 16.0038 18 16.0526H20ZM19.3603 14.5082C18.9506 14.0985 18.3951 13.8684 17.8158 13.8684V15.8684C17.8646 15.8684 17.9115 15.8878 17.946 15.9224L19.3603 14.5082ZM17.8158 13.8684C16.9953 13.8684 16.1954 13.7423 15.4346 13.4864L14.797 15.382C15.773 15.7103 16.789 15.8684 17.8158 15.8684V13.8684ZM15.4168 13.4806C15.035 13.3601 14.6275 13.3464 14.2385 13.4411L14.7115 15.3844C14.7456 15.3761 14.7813 15.3773 14.8148 15.3878L15.4168 13.4806ZM14.2385 13.4411C13.8495 13.5358 13.4939 13.7352 13.2102 14.0177L14.6214 15.4349C14.6463 15.4101 14.6774 15.3927 14.7115 15.3844L14.2385 13.4411ZM13.2087 14.0192L12.0718 15.1561L13.4861 16.5703L14.6229 15.4334L13.2087 14.0192ZM13.258 14.9854C11.4624 14.0054 9.98667 12.5297 9.00673 10.7341L7.25116 11.6922C8.41492 13.8246 10.1675 15.5772 12.2999 16.7409L13.258 14.9854ZM8.83605 11.9203L9.965 10.7913L8.55079 9.3771L7.42184 10.5061L8.83605 11.9203ZM9.94711 10.8088C10.5531 10.2324 10.7678 9.37249 10.5099 8.57031L8.60587 9.18232C8.62071 9.22852 8.61868 9.26314 8.61269 9.28697C8.60666 9.311 8.59373 9.33582 8.56868 9.35965L9.94711 10.8088ZM10.5074 8.5627C10.2579 7.80704 10.1316 7.00528 10.1316 6.18421H8.13158C8.13158 7.21051 8.2895 8.22454 8.60834 9.18993L10.5074 8.5627ZM10.1316 6.18421C10.1316 5.60492 9.90146 5.04936 9.49184 4.63974L8.07763 6.05395C8.11217 6.0885 8.13158 6.13535 8.13158 6.18421H10.1316ZM9.49184 4.63974C9.08222 4.23012 8.52666 4 7.94737 4V6C7.99622 6 8.04308 6.01941 8.07763 6.05395L9.49184 4.63974ZM7.94737 4H5.18421V6H7.94737V4ZM5.18421 4C4.60492 4 4.04936 4.23012 3.63974 4.63974L5.05395 6.05395C5.0885 6.01941 5.13535 6 5.18421 6V4ZM3.63974 4.63974C3.23012 5.04936 3 5.60492 3 6.18421H5C5 6.13535 5.01941 6.0885 5.05395 6.05395L3.63974 4.63974ZM3 6.18421C3 14.3549 9.64508 21 17.8158 21V19C10.7497 19 5 13.2503 5 6.18421H3ZM5.18421 6.78947H7.94737V4.78947H5.18421V6.78947ZM7.94737 6.78947C7.78684 6.78947 7.63289 6.7257 7.51938 6.6122L8.9336 5.19798C8.67203 4.93642 8.31728 4.78947 7.94737 4.78947V6.78947ZM7.51938 6.6122C7.40587 6.49869 7.34211 6.34474 7.34211 6.18421H9.34211C9.34211 5.8143 9.19516 5.45955 8.9336 5.19798L7.51938 6.6122ZM7.34211 6.18421C7.34211 7.29956 7.51649 8.39157 7.85763 9.43249L9.75816 8.80962C9.48351 7.97159 9.34211 7.08992 9.34211 6.18421H7.34211ZM7.86615 9.45739C7.79617 9.26144 7.81845 8.99628 8.00605 8.80868L9.42026 10.2229C9.8605 9.78266 9.89856 9.20171 9.74964 8.78472L7.86615 9.45739ZM8.00785 8.80689L6.45259 10.3543L7.8632 11.7721L9.41846 10.2247L8.00785 8.80689ZM6.26736 11.5181C7.666 14.256 9.72855 16.3175 12.4708 17.731L13.3871 15.9532C11.0136 14.7298 9.25505 12.9703 8.04843 10.6082L6.26736 11.5181ZM13.6397 17.5456L15.1791 15.9903L13.7577 14.5834L12.2182 16.1386L13.6397 17.5456ZM15.1755 15.9939C15.0107 16.1587 14.78 16.1968 14.6034 16.1477L15.1387 14.2207C14.6779 14.0927 14.1472 14.1939 13.7613 14.5797L15.1755 15.9939ZM14.5548 16.1329C15.6062 16.4833 16.6999 16.6579 17.8158 16.6579V14.6579C16.9106 14.6579 16.0307 14.5167 15.1873 14.2355L14.5548 16.1329ZM17.8158 16.6579C17.6553 16.6579 17.5013 16.5941 17.3878 16.4806L18.802 15.0664C18.5405 14.8048 18.1857 14.6579 17.8158 14.6579V16.6579ZM17.3878 16.4806C17.2743 16.3671 17.2105 16.2132 17.2105 16.0526H19.2105C19.2105 15.6827 19.0636 15.328 18.802 15.0664L17.3878 16.4806ZM17.2105 16.0526V18.8158H19.2105V16.0526H17.2105ZM17.2105 18.8158C17.2105 18.6553 17.2743 18.5013 17.3878 18.3878L18.802 19.802C19.0636 19.5405 19.2105 19.1857 19.2105 18.8158H17.2105ZM17.3878 18.3878C17.5013 18.2743 17.6553 18.2105 17.8158 18.2105V20.2105C18.1857 20.2105 18.5405 20.0636 18.802 19.802L17.3878 18.3878ZM17.8158 18.2105C11.1839 18.2105 5.78947 12.8161 5.78947 6.18421H3.78947C3.78947 13.9207 10.0793 20.2105 17.8158 20.2105V18.2105ZM5.78947 6.18421C5.78947 6.34474 5.7257 6.49869 5.6122 6.6122L4.19798 5.19798C3.93642 5.45955 3.78947 5.8143 3.78947 6.18421H5.78947ZM5.6122 6.6122C5.49869 6.7257 5.34474 6.78947 5.18421 6.78947V4.78947C4.8143 4.78947 4.45955 4.93642 4.19798 5.19798L5.6122 6.6122Z" fill="#AFAFAF" mask="url(#path-1-inside-1_1469_162)"/>
</g>
</g>
</svg>
