<svg width="132" height="115" viewBox="0 0 132 115" fill="none" xmlns="http://www.w3.org/2000/svg">
<g clipPath="url(#clip0_1473_262)">
<path d="M110.579 69.4233C110.61 67.647 112.463 63.0018 114.342 60.725C116.22 58.451 119.139 56.812 121.177 57.5529C123.078 58.2422 122.827 60.7564 120.479 62.3811C118.13 64.0086 114.607 66.0424 113.538 68.9056L111.337 72.4038L110.579 69.4176V69.4233Z" fill="#F7941D"/>
<path opacity="0.1" d="M110.579 69.4233C110.61 67.647 112.463 63.0018 114.342 60.725C116.22 58.451 119.139 56.812 121.177 57.5529C123.078 58.2422 122.827 60.7564 120.479 62.3811C118.13 64.0086 114.607 66.0424 113.538 68.9056L111.337 72.4038L110.579 69.4176V69.4233Z" fill="black"/>
<path d="M110.916 70.8649C110.973 70.862 111.021 70.8191 111.035 70.7619C112.326 64.718 117.303 59.8726 120.248 58.8343C120.316 58.8114 120.35 58.737 120.328 58.6684C120.305 58.5997 120.231 58.5625 120.162 58.5883C117.161 59.6466 112.093 64.5692 110.782 70.7075C110.767 70.7762 110.81 70.8477 110.881 70.862C110.893 70.862 110.904 70.8649 110.916 70.862V70.8649Z" fill="white"/>
<path d="M111.751 74.7636C112.053 73.771 113.295 72.1435 115.288 70.8163C117.488 69.3489 120.253 68.7025 120.909 67.5412C121.696 66.1454 120.536 64.7953 118.295 65.0327C116.055 65.273 112.073 68.262 111.366 72.8586L111.751 74.7636Z" fill="#F7941D"/>
<path d="M111.335 73.7081C111.383 73.7053 111.429 73.6738 111.449 73.6252C113.393 68.4594 117.375 66.706 119.21 66.5001C119.282 66.4915 119.333 66.4286 119.324 66.357C119.316 66.2855 119.256 66.2341 119.182 66.2426C117.152 66.4715 113.19 68.262 111.206 73.5336C111.181 73.5994 111.215 73.6767 111.28 73.7024C111.298 73.7081 111.317 73.711 111.335 73.711V73.7081Z" fill="white"/>
<path d="M24.1116 86.2221L26.2694 84.9864C26.2694 84.9864 27.3041 79.2629 26.5317 74.3459C25.4428 67.4296 20.751 65.0441 19.0465 65.7334C17.3419 66.4199 16.9428 68.4708 20.0184 72.4667C21.8342 74.8236 24.1715 79.8092 24.1116 86.2278V86.2221Z" fill="#F7941D"/>
<g opacity="0.1">
<path d="M24.1116 86.2221L26.2694 84.9864C26.2694 84.9864 27.3041 79.2629 26.5317 74.3459C25.4428 67.4296 20.751 65.0441 19.0465 65.7334C17.3419 66.4199 16.9428 68.4708 20.0184 72.4667C21.8342 74.8236 24.1715 79.8092 24.1116 86.2278V86.2221Z" fill="black"/>
</g>
<path d="M24.8928 83.4761C24.8928 83.4761 24.8786 83.4761 24.8729 83.4761C24.7874 83.4647 24.7304 83.3875 24.7418 83.3017C25.634 76.8259 23.0372 69.7322 20.1241 66.8747C20.0642 66.8147 20.0614 66.7174 20.1241 66.6573C20.184 66.5973 20.2809 66.5944 20.3407 66.6573C23.308 69.5692 25.9532 76.7772 25.0496 83.3474C25.0382 83.4247 24.9727 83.4819 24.8985 83.4819L24.8928 83.4761Z" fill="white"/>
<path d="M18.1258 89.6945C17.7838 89.8918 17.0826 89.4628 16.8118 89.2797C16.35 88.9708 15.9766 88.5303 15.7286 88.0326C15.4407 87.4548 15.3666 86.8341 15.4578 86.1963C15.5034 85.8645 15.5975 85.5412 15.6887 85.218C15.7799 84.9005 15.8711 84.5859 15.9595 84.2684C16.0479 83.9566 16.1391 83.6334 16.0992 83.313C16.0165 82.6637 15.4436 82.2089 14.9219 81.8171C14.3462 81.3823 13.7447 80.8102 13.7476 80.0294C13.7476 79.4258 14.0611 78.8681 14.4345 78.3933C14.8079 77.9213 15.2469 77.5037 15.5832 77.0031C15.8255 76.6427 16.0137 76.2223 15.9737 75.7903C15.9481 75.5215 15.8398 75.2698 15.7115 75.0324C15.4379 74.5232 15.073 74.057 14.8849 73.5107C14.6968 72.9643 14.7224 72.2864 15.1471 71.8946C15.4949 71.5742 16.0137 71.5284 16.4868 71.5599C16.9229 71.5885 17.3505 71.7859 17.7325 72.0004C18.9667 72.6897 19.6736 74.1571 20.9848 74.6891C21.4893 74.8951 22.0451 74.938 22.5725 75.0781C23.0998 75.2183 23.6357 75.4871 23.8808 75.9763C24.3625 76.9402 23.4703 78.1301 23.8067 79.1541C24.106 80.0608 24.9839 80.4069 25.477 81.2221C25.6937 81.5797 25.7421 81.9916 25.7079 82.4092C25.6481 83.1128 25.5454 83.6305 25.2091 84.4143C24.9298 85.0607 24.1117 86.2191 24.1117 86.2191C24.0917 86.2392 18.1771 89.6601 18.1258 89.6887V89.6945Z" fill="#F7941D"/>
<path d="M21.6264 87.8209H21.6235C21.5351 87.818 21.4696 87.7465 21.4753 87.6607C21.729 81.531 18.8529 74.7663 16.7607 72.8013C16.698 72.744 16.6951 72.6468 16.7521 72.5839C16.8092 72.5209 16.9061 72.5181 16.9688 72.5753C19.1037 74.5804 22.0397 81.4595 21.7831 87.6722C21.7803 87.7551 21.7119 87.8209 21.6292 87.8209H21.6264Z" fill="white"/>
<path d="M20.7113 80.5814C20.697 80.5814 20.6799 80.5814 20.6657 80.5757C18.7046 79.9664 16.2589 79.8606 16.2333 79.8577C16.1478 79.8549 16.0822 79.7833 16.0851 79.6975C16.0879 79.6117 16.1535 79.5459 16.2447 79.5488C16.2703 79.5488 18.753 79.6575 20.754 80.2782C20.8338 80.3039 20.8795 80.3897 20.8566 80.4698C20.8367 80.5356 20.7768 80.5785 20.7084 80.5785L20.7113 80.5814Z" fill="white"/>
<path d="M18.8752 87.4206L49.9847 105.444C50.6659 105.838 51.7719 105.838 52.4531 105.444L111.351 71.314C112.033 70.9193 112.033 70.2786 111.351 69.8839L80.2418 51.8609C79.5606 51.4661 78.4546 51.4661 77.7734 51.8609L18.8752 85.9905C18.1939 86.3852 18.1939 87.0259 18.8752 87.4206Z" fill="#37474F"/>
<path d="M35.6897 95.7929C36.6361 96.3421 38.1725 96.3421 39.1188 95.7929C40.0651 95.2437 40.0651 94.3541 39.1188 93.8078C38.1725 93.2615 36.6361 93.2586 35.6897 93.8078C34.7434 94.357 34.7434 95.2465 35.6897 95.7929Z" fill="#263238"/>
<path d="M49.9848 105.441L18.8753 87.4178C18.2654 87.066 18.2026 86.5168 18.6844 86.1221C18.0943 86.5711 17.6411 87.4207 17.6411 88.1329V89.2971C17.6411 90.0865 18.1941 91.0476 18.8753 91.4423L49.9848 109.465C50.3269 109.663 50.7715 109.763 51.219 109.763V105.738C50.7715 105.738 50.3269 105.638 49.9848 105.441Z" fill="#455A64"/>
<path d="M111.349 75.3357C112.03 74.9409 112.583 73.9799 112.583 73.1904V72.0263C112.583 71.3112 112.13 70.4616 111.54 70.0126C112.021 70.4073 111.959 70.9565 111.349 71.3112L52.4505 105.441C52.1085 105.638 51.6638 105.738 51.2163 105.738V109.763C51.6638 109.763 52.1085 109.663 52.4505 109.465L111.349 75.3357Z" fill="#263238"/>
<path d="M55.1097 101.708L25.7447 84.6947C25.3371 84.4573 25.3371 84.074 25.7447 83.8366L74.0364 55.8396C74.4469 55.6021 75.1082 55.6021 75.5187 55.8396L104.892 72.85C105.3 73.0874 105.3 73.4707 104.892 73.7081L56.589 101.708C56.1814 101.945 55.5173 101.945 55.1068 101.708H55.1097Z" fill="#243D2F"/>
<path d="M47.4735 78.8138L64.8411 88.8765L53.8783 95.2265C53.5391 95.4238 52.9833 95.4238 52.6441 95.2265L36.5107 85.8789C36.1715 85.6815 36.1715 85.3612 36.5107 85.1638L47.4735 78.8138Z" fill="#435444"/>
<path d="M64.8412 88.8765L62.7946 80.7131C62.7462 80.5186 62.6407 80.3413 62.4868 80.2154H62.4839C62.3272 80.081 62.1362 79.998 61.9338 79.9809L47.4736 78.8138L64.8412 88.8765Z" fill="#435444"/>
<path d="M64.8412 88.8765L49.2979 88.2329C48.9131 88.2186 48.5967 87.924 48.5511 87.5407L47.4736 78.8138L64.8412 88.8765Z" fill="#435444"/>
<path d="M64.8412 88.8765L49.2979 88.2329C48.9131 88.2186 48.5967 87.924 48.5511 87.5407L47.4736 78.8138L49.392 87.3891C49.4262 87.5436 49.5601 87.658 49.7198 87.6723L64.8412 88.8765Z" fill="white"/>
<path d="M50.9482 88.2043L53.2628 95.584L53.8813 95.2265L50.9482 88.2043Z" fill="white"/>
<path d="M35.895 85.5214L36.5136 85.1638L48.6307 86.8629L35.895 85.5214Z" fill="white"/>
<path d="M57.3533 75.1469L71.1721 83.153C71.5142 83.3504 72.0643 83.3504 72.4064 83.153L92.0144 71.7946C92.3564 71.5973 92.3564 71.2769 92.0144 71.0795L78.1984 63.0734C77.8563 62.8761 77.3062 62.8761 76.9642 63.0734L57.3561 74.4319C57.0141 74.6292 57.0141 74.9496 57.3561 75.1469H57.3533Z" fill="#435444"/>
<path d="M68.3418 74.0915C68.0026 73.5079 67.9598 72.9273 68.2192 72.3495C68.4758 71.7689 69.0344 71.2311 69.8924 70.7334C70.873 70.1671 71.8906 69.8038 72.9509 69.6522C74.0084 69.4977 75.0631 69.5349 76.1149 69.7638C77.1667 69.9926 78.1814 70.3902 79.162 70.9565C80.077 71.4857 80.7012 72.032 81.0347 72.5955C81.3682 73.1561 81.4081 73.7053 81.1573 74.2402C80.9064 74.7751 80.382 75.2728 79.581 75.739C78.7287 76.231 77.8907 76.5056 77.0641 76.5628C76.2374 76.6171 75.5248 76.4713 74.9234 76.1252C74.6298 75.9564 74.4645 75.7705 74.4246 75.576C74.3847 75.3786 74.4559 75.1927 74.6327 75.0125C74.168 75.0497 73.7091 75.0182 73.2588 74.9181C72.8084 74.818 72.3894 74.6578 72.0046 74.4347C71.3461 74.0457 71.0041 73.6309 70.9756 73.1904C70.9471 72.75 71.2606 72.3409 71.9191 71.9605C72.7343 71.4885 73.6094 71.2626 74.5472 71.2826C75.4849 71.3026 76.3743 71.5572 77.218 72.0463C77.5828 72.258 77.8764 72.5011 78.1016 72.7757C78.3268 73.0503 78.4494 73.3106 78.4722 73.5566L75.8982 75.0468C75.6902 75.1669 75.579 75.2728 75.559 75.3672C75.5419 75.4616 75.6161 75.556 75.7785 75.6503C76.0579 75.8105 76.4341 75.8448 76.9101 75.7476C77.3862 75.6503 77.9135 75.433 78.4921 75.0983C79.1363 74.7264 79.5439 74.326 79.715 73.9055C79.886 73.4822 79.8404 73.0646 79.581 72.647C79.3188 72.2294 78.8741 71.8404 78.2441 71.4742C77.0926 70.8078 75.8925 70.4502 74.6441 70.4016C73.3956 70.353 72.1756 70.6762 70.9813 71.3684C70.2801 71.7746 69.8297 72.2036 69.6302 72.6556C69.4307 73.1075 69.4592 73.5508 69.7214 73.9828C69.9836 74.4147 70.434 74.818 71.0782 75.1927C71.4288 75.3958 71.8107 75.5674 72.2212 75.7047C72.6317 75.8448 73.0165 75.9307 73.3756 75.9621C73.4326 75.9707 73.4725 75.9821 73.4925 75.9936C73.5153 76.005 73.5153 76.0308 73.4925 76.068L73.1162 76.5971C73.0877 76.6314 73.0706 76.6486 73.0621 76.6543C73.0279 76.6743 72.968 76.6801 72.8911 76.6658C72.4549 76.6114 71.996 76.5027 71.5115 76.3397C71.0297 76.1766 70.5794 75.9736 70.1661 75.7333C69.2853 75.2241 68.6781 74.6778 68.3361 74.0943L68.3418 74.0915ZM74.2849 74.3403C74.7324 74.3803 75.1115 74.3088 75.4279 74.1258L76.9187 73.262C76.8047 73.0217 76.5538 72.79 76.169 72.5669C75.6816 72.2837 75.16 72.1407 74.6013 72.1321C74.0426 72.1235 73.521 72.2608 73.0364 72.5412C72.6203 72.7814 72.4207 73.0188 72.4293 73.2534C72.4407 73.4879 72.663 73.7311 73.0991 73.9828C73.4412 74.183 73.8374 74.3003 74.2849 74.3403Z" fill="white"/>
<path d="M93.408 62.3325C93.6161 62.4527 93.9553 62.4527 94.1634 62.3325C94.3715 62.2124 94.3715 62.015 94.1634 61.8949C93.9553 61.7748 93.6161 61.7748 93.408 61.8949C93.1999 62.015 93.1999 62.2124 93.408 62.3325Z" fill="#263238"/>
<path d="M94.6165 65.7764C95.0355 66.0195 95.7111 66.0195 96.1301 65.7764C96.5491 65.5332 96.5491 65.1414 96.1301 64.9011C95.7111 64.658 95.0355 64.658 94.6165 64.9011C94.1975 65.1442 94.1975 65.5361 94.6165 65.7764Z" fill="#263238"/>
<path d="M93.5504 64.249C93.8298 64.0888 93.8155 63.8171 93.5162 63.6455L88.5394 60.7622C88.2429 60.5906 87.7755 60.582 87.4961 60.7422C87.2168 60.9024 87.2339 61.1741 87.5303 61.3457L92.5072 64.229C92.8036 64.4006 93.2711 64.4092 93.5504 64.249Z" fill="#263238"/>
<path d="M29.0205 27.874C29.0205 27.3105 29.4139 26.624 29.9013 26.3409L75.0034 0.211648C75.4909 -0.0715259 76.2804 -0.0715259 76.7679 0.211648L77.7627 0.786576C78.2501 1.06975 78.6434 1.75337 78.6434 2.31972V37.0099C78.6434 37.5706 78.2472 38.2628 77.7627 38.5431L32.6605 64.6723C32.1759 64.9526 31.3835 64.9526 30.8961 64.6723L29.9013 64.0974C29.4167 63.817 29.0205 63.1277 29.0205 62.5642V27.874Z" fill="#39B54A"/>
<path d="M29.0205 27.874C29.0205 27.3105 29.4139 26.624 29.9013 26.3409L75.0034 0.211648C75.4909 -0.0715259 76.2804 -0.0715259 76.7679 0.211648L77.7627 0.786576C78.2501 1.06975 78.6434 1.75337 78.6434 2.31972V37.0099C78.6434 37.5706 78.2472 38.2628 77.7627 38.5431L32.6605 64.6723C32.1759 64.9526 31.3835 64.9526 30.8961 64.6723L29.9013 64.0974C29.4167 63.817 29.0205 63.1277 29.0205 62.5642V27.874Z" fill="url(#paint0_linear_1473_262)"/>
<path opacity="0.4" d="M29.2798 27.0015L31.7825 28.4489L78.3839 1.44726C78.2243 1.16981 78.0048 0.929541 77.7625 0.786524L76.7649 0.214456C76.2803 -0.0687182 75.4879 -0.0687182 75.0062 0.214456L29.904 26.3408C29.6589 26.4838 29.4366 26.727 29.2798 27.0015Z" fill="white"/>
<path opacity="0.1" d="M29.0204 27.8741V62.5643C29.0204 63.1306 29.4166 63.8142 29.9041 64.0974L30.896 64.6752C30.9701 64.7181 31.0499 64.7553 31.1383 64.7839C31.2523 64.8211 31.372 64.8497 31.5003 64.8668C31.7283 64.8955 31.9706 64.8869 32.1958 64.8411C32.2528 64.8297 32.3127 64.8125 32.3668 64.7953C32.4039 64.7839 32.4381 64.7696 32.4723 64.7524C32.3098 64.8096 32.1673 64.8039 32.0504 64.7439C31.8822 64.6552 31.7796 64.455 31.7796 64.1632V29.473C31.7796 29.1097 31.9621 28.8323 32.2385 28.7207L31.7796 28.4518L29.277 27.0045C29.1173 27.282 29.0176 27.5937 29.0176 27.8741H29.0204Z" fill="black"/>
<path opacity="0.2" d="M31.7826 28.4518L52.6705 36.2834C54.1584 36.8412 55.8316 36.2862 56.6981 34.9533L60.0531 29.7961L78.5523 1.35291L60.7201 29.9878L78.6435 37.0271C78.6407 37.3102 78.5352 37.6306 78.367 37.9109L60.6688 30.0707L56.7723 36.3292C55.8744 37.765 54.0644 38.3257 52.5223 37.6392L49.746 36.4092L32.0506 64.7466C31.8824 64.658 31.7798 64.4578 31.7798 64.166V63.5882L49.6576 36.3721L31.7798 28.4518H31.7826Z" fill="black"/>
<path d="M36.9473 20.3513L33.866 18.5664C33.866 18.5664 33.866 18.5664 33.8632 18.5664L33.8347 18.5493V18.555C32.4636 17.7798 30.5852 17.8971 28.5101 19.0984C24.3285 21.5211 20.9365 27.4134 20.9365 32.2589C20.9365 34.6787 21.7831 36.3778 23.1484 37.1729L23.1542 37.1786L25.959 38.7862L26.6288 37.662C27.3215 37.5019 28.0398 37.2559 28.8008 36.8154C32.9824 34.3927 36.3744 28.5004 36.3744 23.655C36.3744 22.9342 36.2775 22.302 36.1378 21.7128L36.9502 20.3541L36.9473 20.3513Z" fill="#37474F"/>
<path d="M31.4373 20.7832C27.2558 23.2059 23.8638 29.0982 23.8638 33.9436C23.8638 38.7891 27.2529 40.7541 31.4373 38.3314C35.6189 35.9087 39.0109 30.0164 39.0109 25.171C39.0109 20.3256 35.6217 18.3605 31.4373 20.7832Z" fill="#455A64"/>
<path d="M29.083 30.1337C29.0317 30.0879 29.0117 30.0164 29.0231 29.9192C29.0345 29.8219 29.0716 29.7247 29.1371 29.6303L31.4716 26.1464C31.5286 26.0634 31.5885 25.9805 31.6484 25.9004C31.7082 25.8203 31.7766 25.7574 31.8479 25.7173L32.6859 25.2311C32.7657 25.1853 32.8341 25.1796 32.8911 25.211C32.9482 25.2454 32.9767 25.3054 32.9767 25.397V33.446C32.9767 33.5375 32.9482 33.6319 32.8911 33.732C32.8341 33.8321 32.7657 33.9036 32.6859 33.9494L31.8137 34.4528C31.7339 34.4986 31.6655 34.5043 31.6085 34.4728C31.5514 34.4385 31.5229 34.3784 31.5229 34.2869V28.1314L29.9951 30.3997C29.9296 30.4941 29.8612 30.5599 29.7842 30.5885C29.7101 30.6199 29.6417 30.6142 29.5847 30.5742L29.0801 30.1308L29.083 30.1337Z" fill="#FAFAFA"/>
<path d="M98.9234 57.8761V57.3641H99.0488C99.1941 57.0666 99.4706 56.7834 99.8754 56.5489C101.147 55.8138 103.205 55.8138 104.476 56.5489C104.881 56.7834 105.154 57.0638 105.303 57.3641H105.428V57.8589C105.439 58.348 105.123 58.84 104.476 59.2147C103.205 59.9498 101.147 59.9498 99.8754 59.2147C99.2369 58.8457 98.9205 58.3595 98.9234 57.8761Z" fill="#263238"/>
<path d="M104.476 56.0312C103.205 55.2961 101.147 55.2961 99.8758 56.0312C98.6045 56.7663 98.6045 57.9619 99.8758 58.697C101.147 59.4321 103.205 59.4321 104.476 58.697C105.748 57.9619 105.748 56.7663 104.476 56.0312Z" fill="#455A64"/>
<path d="M103.014 37.7535V57.1409C103.014 57.2639 102.931 57.3898 102.769 57.4842C102.441 57.673 101.911 57.673 101.586 57.4842C101.423 57.3898 101.341 57.2639 101.341 57.1409V37.7535H103.017H103.014Z" fill="#37474F"/>
<path d="M101.338 39.873V40.4794L103.011 41.4462L103.014 40.8456L101.338 39.873Z" fill="#263238"/>
<path d="M112.027 32.6279L111.884 32.9167L110.351 36.0031L109.624 37.4675L107.161 42.4245L106.89 42.9708C106.873 42.9708 106.859 42.9708 106.842 42.9708C106.742 42.9708 106.642 42.948 106.566 42.9051L95.5914 36.5379C95.4375 36.4493 95.3149 36.2347 95.3149 36.0574V31.8098C95.3149 29.6874 96.7088 27.1589 98.4276 26.1635C99.2428 25.6915 99.9811 25.6543 100.537 25.9661V25.9604L112.03 32.6279H112.027Z" fill="#455A64"/>
<path d="M109.954 32.851C109.262 33.1084 106.736 35.2022 106.736 38.4944C106.736 41.2632 106.739 42.702 106.739 42.9594C106.773 42.9651 106.808 42.968 106.842 42.968C106.859 42.968 106.873 42.968 106.89 42.968L107.161 42.4217L109.624 37.4647L110.351 36.0002L110.516 35.6655L109.952 32.8538L109.954 32.851Z" fill="#37474F"/>
<path d="M112.93 39.487C112.91 39.5241 112.87 39.5613 112.816 39.5985C112.808 39.6042 112.796 39.61 112.788 39.6157L107.118 42.8993C107.056 42.9365 106.973 42.9594 106.89 42.9651C106.873 42.9651 106.859 42.9651 106.842 42.9651V38.4916C106.842 37.7279 107.024 36.9127 107.335 36.1346L107.614 36.2977L109.624 37.4618L112.745 39.2696C112.745 39.2696 112.816 39.3125 112.905 39.3611C112.953 39.3897 112.959 39.4355 112.93 39.4841V39.487Z" fill="#37474F"/>
<path d="M112.027 32.6278C111.477 32.3389 110.75 32.3875 109.954 32.8509C109.059 33.3658 108.256 34.3011 107.688 35.3737C107.557 35.6226 107.44 35.8772 107.335 36.1374C107.024 36.9155 106.842 37.7307 106.842 38.4944V42.9679C106.859 42.9679 106.873 42.9679 106.89 42.9679C106.973 42.9622 107.056 42.9393 107.118 42.9022L112.788 39.6185C112.788 39.6185 112.808 39.607 112.816 39.6013C112.859 39.5727 112.896 39.5327 112.93 39.4898C113.01 39.3868 113.064 39.2552 113.064 39.1408V34.8932C113.064 33.7576 112.665 32.9653 112.03 32.6307L112.027 32.6278ZM112.66 39.321L107.241 42.4588C107.195 42.4845 107.158 42.4645 107.158 42.4102V38.4944C107.158 37.8107 107.315 37.0528 107.611 36.3005C107.617 36.2862 107.623 36.2719 107.629 36.2576C107.74 35.9801 107.865 35.7084 108.008 35.451C108.558 34.4298 109.31 33.5917 110.111 33.1284C110.525 32.8881 110.915 32.768 111.271 32.768C111.497 32.768 111.702 32.8194 111.881 32.9138C112.423 33.2027 112.742 33.9064 112.742 34.8903V39.178C112.742 39.2323 112.705 39.2953 112.66 39.321Z" fill="#455A64"/>
<path d="M112.745 34.8904V39.2725L107.614 36.3006C107.614 36.3006 107.626 36.272 107.631 36.2577C108.181 34.879 109.108 33.7091 110.114 33.1285C110.527 32.8882 110.918 32.7681 111.274 32.7681C112.181 32.7681 112.745 33.5804 112.745 34.8904Z" fill="#263238"/>
<path d="M103.356 37.0729L103.806 36.8126H103.809C103.963 36.7268 104.177 36.7382 104.411 36.8755C104.884 37.1501 105.266 37.8137 105.266 38.3629C105.266 38.6375 105.169 38.8291 105.015 38.9178L104.596 39.1581L104.519 39.0322C104.442 39.0151 104.359 38.9865 104.274 38.9378C103.801 38.6632 103.419 37.9996 103.419 37.4505C103.419 37.3704 103.43 37.2989 103.444 37.2302L103.353 37.0757L103.356 37.0729Z" fill="#E0E0E0"/>
<path d="M103.977 37.1215C104.45 37.3961 104.832 38.0597 104.832 38.6089C104.832 39.1552 104.45 39.3783 103.977 39.1037C103.504 38.8291 103.122 38.1655 103.122 37.6163C103.122 37.07 103.504 36.8469 103.977 37.1215Z" fill="#FAFAFA"/>
<path d="M103.977 38.3486C103.84 38.3486 103.729 38.237 103.729 38.0997V31.0633C103.729 30.926 103.84 30.8145 103.977 30.8145C104.114 30.8145 104.225 30.926 104.225 31.0633V38.0997C104.225 38.237 104.114 38.3486 103.977 38.3486Z" fill="#EBEBEB"/>
<path d="M103.729 31.7583L101.244 30.3196L102.022 31.8213L101.244 32.4219L103.729 33.8607V31.7583Z" fill="#DF851A"/>
<mask id="mask0_1473_262" style="mask-type:luminance" maskUnits="userSpaceOnUse" x="107" y="32" width="6" height="12">
<path d="M112.745 34.8904C112.745 33.5804 112.181 32.7681 111.274 32.7681C110.918 32.7681 110.527 32.8882 110.114 33.1285C109.108 33.7091 108.182 34.879 107.631 36.2577C107.626 36.272 107.62 36.2863 107.614 36.3006C107.318 37.0557 107.161 37.8108 107.161 38.4945V43.1797L112.745 39.9475V34.8933V34.8904Z" fill="white"/>
</mask>
<g mask="url(#mask0_1473_262)">
<path d="M111.451 36.3235C111.451 36.252 111.403 36.1691 111.34 36.1319L105.719 32.8768C105.659 32.8425 105.559 32.8425 105.499 32.8768L105.377 32.9483C105.317 32.9826 105.266 33.0685 105.266 33.14V37.4619C105.266 37.5306 105.314 37.6193 105.377 37.6536L110.998 40.9087C111.058 40.943 111.157 40.943 111.217 40.9087L111.34 40.8371C111.4 40.8028 111.451 40.717 111.451 40.6455V36.3235Z" fill="#F0F0F0"/>
<path d="M111.417 36.2148L111.106 36.395L105.3 33.0313C105.32 32.997 105.348 32.9655 105.377 32.9483L105.502 32.8768C105.562 32.8425 105.662 32.8425 105.722 32.8768L111.343 36.1319C111.374 36.149 111.4 36.1805 111.42 36.2148H111.417Z" fill="#FAFAFA"/>
<path d="M111.451 36.3235V40.6455C111.451 40.717 111.402 40.8028 111.34 40.8371L111.217 40.9086C111.217 40.9086 111.197 40.9172 111.186 40.9229C111.172 40.9286 111.157 40.9315 111.14 40.9344C111.112 40.9372 111.08 40.9344 111.055 40.9315C111.046 40.9315 111.04 40.9286 111.035 40.9258C111.029 40.9258 111.026 40.9229 111.021 40.9201C111.04 40.9286 111.058 40.9258 111.072 40.9201C111.092 40.9086 111.106 40.8829 111.106 40.8485V36.5266C111.106 36.4808 111.083 36.4465 111.049 36.4322L111.106 36.3979L111.417 36.2177C111.437 36.252 111.448 36.292 111.448 36.3263L111.451 36.3235Z" fill="#E0E0E0"/>
<path d="M111.106 36.3978L108.504 37.3732C108.318 37.4419 108.11 37.3732 108.002 37.2073L107.583 36.5637L105.277 33.0198L107.5 36.5866L105.266 37.4647C105.266 37.4991 105.28 37.5391 105.3 37.5734L107.506 36.5952L107.991 37.3761C108.102 37.5563 108.327 37.6249 108.521 37.5391L108.866 37.3847L111.072 40.9143C111.092 40.9029 111.106 40.8771 111.106 40.8428V40.7713L108.877 37.3789L111.106 36.3921V36.3978Z" fill="#E0E0E0"/>
</g>
<path d="M116.485 35.6198L115.889 36.1175C115.764 36.3063 115.599 36.5237 115.379 36.7754L113.669 38.7576L113.065 39.4584L109.177 41.7124L107.318 43.2598C107.318 43.2598 107.307 43.2627 107.301 43.2627C107.247 43.2712 107.184 43.2627 107.138 43.2369L106.965 43.1368C106.965 43.1368 106.962 43.1368 106.962 43.1339C106.899 43.0939 106.885 43.0167 106.933 42.9595C106.936 42.9595 106.936 42.9595 106.936 42.9595L108.293 41.3863H108.296C108.564 41.0745 108.854 40.737 109.159 40.3852C110.436 38.9006 112.868 36.8927 114.584 35.8973C115.388 35.4339 115.889 35.2737 116.069 35.3853H116.072L116.479 35.6198C116.479 35.6227 116.482 35.6227 116.485 35.6227V35.6198Z" fill="#455A64"/>
<path d="M115.798 37.0214L114.669 38.3285C114.669 38.3285 114.658 38.3457 114.646 38.3571L113.575 39.5957C113.523 39.6557 113.426 39.7358 113.358 39.7759L107.383 43.2369C107.363 43.2483 107.341 43.2569 107.318 43.2598C107.312 43.2626 107.306 43.2626 107.301 43.2626C107.492 43.0395 108.375 42.0155 109.456 40.7656H109.459C109.496 40.7198 109.538 40.674 109.578 40.6254C110.855 39.1437 113.287 37.1358 115.003 36.1404C115.786 35.6856 116.288 35.5225 116.479 35.6169C116.479 35.6198 116.482 35.6198 116.485 35.6198C116.701 35.7399 116.488 36.2233 115.798 37.0214Z" fill="#37474F"/>
</g>
<defs>
<linearGradient id="paint0_linear_1473_262" x1="53.832" y1="-18.925" x2="53.832" y2="64.8825" gradientUnits="userSpaceOnUse">
<stop stop-color="#87FF98"/>
<stop offset="0.833333" stop-color="#F7941D"/>
</linearGradient>
<clipPath id="clip0_1473_262">
<rect width="132" height="115" fill="white"/>
</clipPath>
</defs>
</svg>
